<?xml version="1.0" encoding="UTF-8" standalone="no"?>
<svg
   xmlns:osb="http://www.openswatchbook.org/uri/2009/osb"
   xmlns:dc="http://purl.org/dc/elements/1.1/"
   xmlns:cc="http://creativecommons.org/ns#"
   xmlns:rdf="http://www.w3.org/1999/02/22-rdf-syntax-ns#"
   xmlns:svg="http://www.w3.org/2000/svg"
   xmlns="http://www.w3.org/2000/svg"
   xmlns:sodipodi="http://sodipodi.sourceforge.net/DTD/sodipodi-0.dtd"
   xmlns:inkscape="http://www.inkscape.org/namespaces/inkscape"
   sodipodi:docname="描画.svg"
   inkscape:version="1.0 (4035a4f, 2020-05-01)"
   id="svg8"
   version="1.1"
   viewBox="0 0 210 297"
   height="297mm"
   width="210mm">
  <defs
     id="defs2">
    <linearGradient
       osb:paint="solid"
       id="linearGradient1148">
      <stop
         id="stop1146"
         offset="0"
         style="stop-color:#008080;stop-opacity:1;" />
    </linearGradient>
    <inkscape:path-effect
       only_selected="false"
       apply_with_weight="true"
       apply_no_weight="true"
       helper_size="0"
       steps="2"
       weight="33.333333"
       lpeversion="1"
       is_visible="true"
       id="path-effect1123"
       effect="bspline" />
  </defs>
  <sodipodi:namedview
     inkscape:window-maximized="0"
     inkscape:window-y="23"
     inkscape:window-x="0"
     inkscape:window-height="855"
     inkscape:window-width="1440"
     inkscape:snap-text-baseline="true"
     showgrid="false"
     inkscape:document-rotation="0"
     inkscape:current-layer="layer1"
     inkscape:document-units="mm"
     inkscape:cy="281.37829"
     inkscape:cx="246.02258"
     inkscape:zoom="1.0668694"
     inkscape:pageshadow="2"
     inkscape:pageopacity="0.0"
     borderopacity="1.0"
     bordercolor="#666666"
     pagecolor="#ffffff"
     id="base" />
  <metadata
     id="metadata5">
    <rdf:RDF>
      <cc:Work
         rdf:about="">
        <dc:format>image/svg+xml</dc:format>
        <dc:type
           rdf:resource="http://purl.org/dc/dcmitype/StillImage" />
        <dc:title></dc:title>
      </cc:Work>
    </rdf:RDF>
  </metadata>
  <g
     id="layer1"
     inkscape:groupmode="layer"
     inkscape:label="レイヤー 1">
    <path
       id="path16"
       d="M 100.54167,27.970239 50.648809,77.863093 h 99.785711 z"
       style="fill:none;stroke:#008080;stroke-width:0.26458300000000001px;stroke-linecap:butt;stroke-linejoin:miter;stroke-opacity:1" />
    <path
       id="path18"
       d="m 63.719469,76.899953 v 51.583087 l 72.403431,-0.7699 -1.09702,-50.043288 z"
       style="fill:none;stroke:#008080;stroke-width:0.32165500000000002px;stroke-linecap:butt;stroke-linejoin:miter;stroke-opacity:1" />
    <path
       transform="scale(0.26458333)"
       id="path869"
       d=""
       style="fill:#ffffff;fill-opacity:1;stroke-width:0.937322" />
    <path
       transform="scale(0.26458333)"
       id="path871"
       d=""
       style="fill:#ffffff;fill-opacity:1;stroke-width:0.937322" />
    <path
       transform="scale(0.26458333)"
       id="path873"
       d=""
       style="fill:#ffffff;fill-opacity:1;stroke-width:0.937322" />
    <ellipse
       ry="11.903987"
       rx="12.275987"
       cy="97.215904"
       cx="82.211906"
       id="path877"
       style="fill:#009595;fill-opacity:1;stroke-width:0.264583" />
    <ellipse
       ry="10.16799"
       rx="10.167989"
       cy="97.959892"
       cx="82.831909"
       id="path885"
       style="fill:#ffffff;fill-opacity:1;stroke-width:0.264583" />
    <path
       d="m 91.015904,98.827896 a 7.439992,7.563992 0 0 1 -6.136953,7.447084 7.439992,7.563992 0 0 1 -8.286602,-4.83852 7.439992,7.563992 0 0 1 3.234324,-9.141918 7.439992,7.563992 0 0 1 9.419521,1.636292 l -5.670282,4.897062 z"
       sodipodi:arc-type="slice"
       sodipodi:end="5.5789941"
       sodipodi:start="0"
       sodipodi:ry="7.563992"
       sodipodi:rx="7.439992"
       sodipodi:cy="98.827896"
       sodipodi:cx="83.575912"
       sodipodi:type="arc"
       id="path887"
       style="fill:#009595;fill-opacity:1;stroke-width:0.264583" />
    <ellipse
       style="fill:#009595;fill-opacity:1;stroke-width:0.264583"
       id="path877-9"
       cx="116.55988"
       cy="97.463898"
       rx="12.275987"
       ry="11.903987" />
    <ellipse
       style="fill:#ffffff;fill-opacity:1;stroke-width:0.264583"
       id="path885-4"
       cx="116.06387"
       cy="98.455894"
       rx="10.167989"
       ry="10.16799" />
    <path
       style="fill:#009595;fill-opacity:1;stroke-width:0.264583"
       id="path887-1"
       sodipodi:type="arc"
       sodipodi:cx="116.06387"
       sodipodi:cy="99.199898"
       sodipodi:rx="7.4399924"
       sodipodi:ry="7.563992"
       sodipodi:start="0"
       sodipodi:end="5.5789941"
       sodipodi:arc-type="slice"
       d="m 123.50387,99.199898 a 7.4399924,7.563992 0 0 1 -6.13696,7.447082 7.4399924,7.563992 0 0 1 -8.2866,-4.83852 7.4399924,7.563992 0 0 1 3.23432,-9.141916 7.4399924,7.563992 0 0 1 9.41953,1.636292 l -5.67029,4.897062 z" />
    <path
       id="path1125"
       d="m 89.705371,110.45185 c 8.878256,29.0143 19.729459,1.03623 19.729459,1.03623 l -0.49324,1.03622 z"
       style="fill:none;stroke:#008080;stroke-width:0.53932599999999997px;stroke-linecap:butt;stroke-linejoin:miter;stroke-opacity:1" />
    <path
       id="path1129"
       d="m 63.487932,93.2479 c -3.402439,0.202202 -6.739634,0.495998 -10.167988,0.495998 -0.315426,0 -1.783231,0.200772 -1.983999,0 -0.22882,-0.228819 0.180128,-3.179614 0,-3.719994 -0.504876,-1.514625 -1.414582,-3.340385 -2.727997,-4.215997 -0.149217,-0.09948 -1.291429,-0.542854 -1.487998,-0.248 -0.609656,0.914485 -0.264028,4.399886 0,5.455994 0.07498,0.299908 -0.09097,1.487999 0,1.487999 0.08267,0 0.08267,-0.248 0,-0.248 -0.502841,0 -0.985158,0.248 -1.487999,0.248 -0.289978,0 -6.865188,-0.0788 -6.943992,0 -0.112858,0.112858 -0.40241,0.463227 -0.496001,0.744 -0.662337,1.987013 2.563834,1.735997 3.719997,1.735997 0.07549,0 2.876571,-0.07429 2.231998,0.248 -0.538287,0.269144 -1.182838,0.258931 -1.735997,0.496001 -3.25184,1.393645 -4.165682,2.349182 -5.455997,5.703992 -0.241929,0.62902 -0.970039,2.92993 -0.495998,3.72 1.574802,2.62467 5.701712,-2.10686 6.943992,-2.728 0.118142,-0.0591 1.175345,-1.00262 1.239999,-0.744 0.284792,1.13917 0.143205,2.56725 0.247999,3.72 0.202655,2.22919 1.044998,4.12698 1.736,6.19999 0.05228,0.15685 -0.07394,0.34812 0,0.496 0.03697,0.0739 0.174059,-0.037 0.247999,0 0.725154,0.36258 1.135079,0.38869 1.983997,-0.248 0.06614,-0.0496 -0.04586,-0.17922 0,-0.248 0.458552,-0.68783 1.040974,-1.28862 1.487998,-1.984 0.299876,-0.46647 0.518779,-0.98125 0.744,-1.488 0.319972,-0.71993 0.04311,-5.00309 0.248,-5.20799 0.292272,-0.29227 0.826666,0 1.239999,0 2.562664,0 5.125328,0 7.687992,0 0.826664,0 1.653331,0 2.479998,0 0.163213,0 1.375656,0 0.743998,0"
       style="fill:none;stroke:#008080;stroke-width:0.264583px;stroke-linecap:butt;stroke-linejoin:miter;stroke-opacity:1" />
    <path
       style="fill:none;stroke:#008080;stroke-width:0.281104px;stroke-linecap:butt;stroke-linejoin:miter;stroke-opacity:1"
       d="m 135.47515,91.806071 c 3.84062,0.202202 7.60759,0.495998 11.47746,0.495998 0.35605,0 2.01289,0.200772 2.23951,0 0.25829,-0.228819 -0.20332,-3.179614 0,-3.719994 0.5699,-1.514625 1.59677,-3.340385 3.07932,-4.215997 0.16844,-0.09948 1.45775,-0.542854 1.67963,-0.248 0.68817,0.914485 0.29804,4.399886 0,5.455994 -0.0847,0.299908 0.10272,1.487999 0,1.487999 -0.0934,0 -0.0934,-0.248 0,-0.248 0.5676,0 1.11204,0.248 1.67964,0.248 0.32732,0 7.74932,-0.0788 7.83826,0 0.1274,0.112858 0.45424,0.463227 0.55988,0.744 0.74764,1.987013 -2.89401,1.735997 -4.19908,1.735997 -0.0852,0 -3.24703,-0.07429 -2.51943,0.248 0.6076,0.269144 1.33516,0.258931 1.95956,0.496001 3.67062,1.393645 4.70215,2.349182 6.15864,5.703992 0.27309,0.629019 1.09497,2.929929 0.55988,3.719999 -1.77761,2.62467 -6.436,-2.10686 -7.83827,-2.728 -0.13336,-0.0591 -1.32671,-1.002619 -1.39969,-0.744 -0.32148,1.13917 -0.16165,2.56725 -0.27994,3.72 -0.22876,2.22919 -1.17958,4.12698 -1.95957,6.19999 -0.059,0.15685 0.0834,0.34812 0,0.49601 -0.0418,0.0739 -0.19647,-0.037 -0.27994,0 -0.81855,0.36258 -1.28126,0.38868 -2.23951,-0.24801 -0.0746,-0.0496 0.0518,-0.17922 0,-0.248 -0.5176,-0.68783 -1.17503,-1.28862 -1.67963,-1.984 -0.33849,-0.46647 -0.58559,-0.98125 -0.83981,-1.488 -0.36118,-0.71993 -0.0486,-5.00309 -0.27994,-5.20799 -0.32991,-0.29227 -0.93312,0 -1.39969,0 -2.89269,0 -5.78539,0 -8.67809,0 -0.93312,0 -1.86625,0 -2.79937,0 -0.18424,0 -1.55283,0 -0.83982,0"
       id="path1129-5" />
    <path
       transform="scale(0.26458333)"
       id="path1152"
       d="m 287.031,200.53488 93.0286,-93.02861 93.0292,93.09832 93.02919,93.09831 -31.40028,-0.46312 c -74.05681,-1.09225 -258.85875,-3.36118 -276.27562,-3.39201 -18.36708,-0.0325 -18.98076,0.027 -18.98076,1.84106 0,1.82311 -0.62489,1.87465 -22.72947,1.87465 H 194.0024 Z"
       style="fill:#008080;fill-opacity:1;stroke:#008080;stroke-width:0.937322;stroke-opacity:1" />
    <path
       transform="scale(0.26458333)"
       id="path1154"
       d="m 337.41146,293.58057 c 52.58375,-0.26716 101.30106,-0.25076 108.26067,0.0365 6.95962,0.28721 -36.06346,0.5058 -95.60683,0.48575 l -108.26067,-0.0364 z"
       style="fill:#008080;fill-opacity:1;stroke:#008080;stroke-width:0.937322;stroke-opacity:1" />
    <path
       transform="scale(0.26458333)"
       id="path1156"
       d="m 242.27329,292.57288 c 0,-0.52894 8.9106,-0.88405 22.18329,-0.88405 12.2008,0 22.00753,0.15323 21.79273,0.3405 -0.95237,0.83031 -43.97602,1.36209 -43.97602,0.54355 z"
       style="fill:#008080;fill-opacity:1;stroke:#008080;stroke-width:0.937322;stroke-opacity:1" />
    <path
       transform="scale(0.26458333)"
       id="path1158"
       d="m 288.50773,293.79797 c 25.6867,-0.13864 67.4444,-0.1386 92.79486,8e-5 25.35047,0.13869 4.33408,0.25212 -46.7031,0.25208 -51.03717,-5e-5 -71.77846,-0.11352 -46.09176,-0.25216 z"
       style="fill:#008080;fill-opacity:1;stroke:#008080;stroke-width:0.937322;stroke-opacity:1" />
    <path
       transform="scale(0.26458333)"
       id="path1160"
       d="m 294.06032,291.98004 c 0.90218,-0.23577 2.37846,-0.23577 3.28063,0 0.90217,0.23576 0.16403,0.42865 -1.64031,0.42865 -1.80435,0 -2.54249,-0.19289 -1.64032,-0.42865 z"
       style="fill:#008080;fill-opacity:1;stroke:#008080;stroke-width:0.937322;stroke-opacity:1" />
    <path
       transform="scale(0.26458333)"
       id="path1162"
       d="m 178.27758,422.52216 c -0.73098,-0.73098 -2.68563,-5.42013 -4.34367,-10.42033 -2.28584,-6.8935 -3.14784,-11.44395 -3.56573,-18.82336 -0.44464,-7.85171 -0.82705,-9.73209 -1.97923,-9.73209 -0.78545,0 -5.25619,2.9252 -9.93498,6.50046 -12.67068,9.6822 -15.74818,10.96336 -18.86011,7.85143 -2.08626,-2.08626 -1.38126,-8.28888 1.84442,-16.22734 4.29376,-10.56699 9.40519,-15.34838 20.48737,-19.16452 3.2068,-1.10426 5.73133,-2.41079 5.61005,-2.9034 -0.12128,-0.49262 -4.61385,-1.12573 -9.98348,-1.40693 -9.58627,-0.502 -12.7604,-1.54061 -12.7604,-4.17534 0,-2.63107 2.78946,-3.14943 18.14771,-3.37231 12.04979,-0.17487 15.8901,-0.52173 16.25323,-1.46803 0.26151,-0.68148 -0.036,-4.8421 -0.66109,-9.24582 -0.62511,-4.40372 -0.85856,-9.86061 -0.51878,-12.12642 0.6126,-4.08513 0.64087,-4.1116 3.37339,-3.15905 3.34952,1.16765 7.0854,5.43293 9.71689,11.09385 1.47453,3.17203 1.96072,6.07735 1.96072,11.71652 v 7.49858 h 10.31055 c 5.67079,0 16.11021,-0.32705 23.19871,-0.72678 l 12.88818,-0.72678 v 17.42107 17.42108 l -22.55897,-0.18105 c -12.40744,-0.0996 -22.91767,0.19119 -23.35607,0.64616 -0.4384,0.45496 -0.93718,5.31179 -1.1084,10.79295 -0.30869,9.88176 -0.34292,10.01191 -4.0606,15.44239 -6.09439,8.90216 -7.57602,9.99875 -10.09971,7.47506 z"
       style="fill:#008080;fill-opacity:1;stroke:#008080;stroke-width:0.937322;stroke-opacity:1" />
    <path
       transform="scale(0.26458333)"
       id="path1164"
       d="m 574.49055,414.77612 c -7.45169,-7.9244 -8.32268,-9.98489 -8.90559,-21.06773 -0.29317,-5.57399 -0.77558,-10.37709 -1.07204,-10.67354 -0.29645,-0.29645 -11.97229,-0.50178 -25.94631,-0.45628 l -25.40731,0.0827 -0.0103,-13.85162 c -0.006,-7.61839 -0.28263,-15.50034 -0.61546,-17.51545 l -0.60515,-3.66383 5.93363,0.62019 c 3.2635,0.3411 15.13982,0.89702 26.39181,1.23536 l 20.45819,0.61518 v -7.46371 c 0,-6.12697 0.42928,-8.32517 2.39694,-12.27374 2.88128,-5.78199 8.88958,-11.49251 12.09177,-11.49251 1.90587,0 2.40862,0.58894 2.94544,3.45046 0.35602,1.89775 0.16145,6.64294 -0.43238,10.54487 -0.59383,3.90192 -1.0769,8.20746 -1.0735,9.56787 l 0.006,2.47346 18.48449,0.149 c 18.94267,0.1527 19.89779,0.34164 19.93135,3.94268 0.0223,2.39374 -2.4012,2.9875 -14.51414,3.55601 -11.17768,0.5246 -13.91194,1.56111 -8.43589,3.19788 14.84958,4.4385 21.23634,8.99089 26.16466,18.64978 4.66843,9.14952 5.67131,16.77832 2.43348,18.51116 -3.6064,1.93009 -8.15151,0.16432 -19.70835,-7.65664 -6.14394,-4.15785 -11.75136,-7.33695 -12.46092,-7.06466 -0.91027,0.3493 -1.46475,3.15344 -1.8832,9.52385 -0.56323,8.57427 -3.37249,19.0543 -7.32457,27.32448 -1.94868,4.07786 -4.84037,3.99112 -8.84284,-0.26525 z"
       style="fill:#008080;fill-opacity:1;stroke:#2d5353;stroke-width:0.937322;stroke-opacity:1" />
    <path
       transform="scale(0.26458333)"
       id="path1174"
       d="m 242.27329,390.22255 v -94.78443 h 133.44936 133.44937 l 0.61621,25.07336 c 0.3389,13.79035 0.80645,33.93105 1.03898,44.75712 0.23254,10.82607 0.91407,41.30936 1.51453,67.74064 0.60044,26.43129 0.92459,48.20399 0.72031,48.38379 -0.20427,0.17979 -50.56499,0.80443 -111.91271,1.38807 -61.34771,0.58365 -122.19161,1.32324 -135.20867,1.64354 l -23.66738,0.58235 z m 137.02722,77.64899 c 10.2731,-2.85324 23.97414,-19.30397 32.89094,-39.49187 2.40034,-5.43443 2.66625,-6.6887 1.56262,-7.37077 -0.9031,-0.55815 -1.60423,-0.30914 -2.18462,0.77586 -0.47009,0.87878 -0.89794,1.65744 -0.95079,1.73034 -0.0529,0.0729 -16.5461,-1.64719 -36.65165,-3.82245 -20.10555,-2.17524 -36.66861,-3.8793 -36.80679,-3.7868 -0.73521,0.49214 7.09408,20.99955 11.23165,29.4193 3.60868,7.34348 6.20592,11.18402 10.49841,15.52401 7.30232,7.38312 12.57708,9.19796 20.41023,7.02238 z m 73.36259,-55.76608 c 15.55935,-4.0527 27.4264,-15.08988 32.44756,-30.17847 1.66423,-5.00102 1.94926,-7.68071 1.65583,-15.56757 -0.32263,-8.67151 -0.66666,-10.18374 -3.83244,-16.84578 -16.72449,-35.19486 -68.11508,-35.20147 -84.82702,-0.0109 -3.10878,6.5462 -3.50873,8.25677 -3.83606,16.40642 -0.58385,14.53612 3.03386,24.08651 12.89969,34.05398 11.41273,11.53029 29.40495,16.33257 45.49244,12.14231 z m -128.62303,-1.24122 c 23.58597,-6.5402 38.10798,-30.8826 32.12563,-53.85036 -2.02213,-7.7635 -5.62829,-14.3227 -10.99307,-19.99516 -9.633,-10.18548 -20.1809,-14.67563 -34.47484,-14.67563 -14.29395,0 -24.84184,4.49015 -34.47485,14.67563 -23.45917,24.80461 -11.55121,64.95435 22.00033,74.17792 6.72948,1.84999 18.49262,1.69853 25.8168,-0.3324 z"
       style="fill:#008080;fill-opacity:1;stroke:#2d5353;stroke-width:0.937322;stroke-opacity:1" />
    <path
       transform="scale(0.26458333)"
       id="path1176"
       d="m 288.45423,291.9766 c 0.91199,-0.23765 2.17737,-0.22202 2.81197,0.0347 0.63459,0.25676 -0.11157,0.4512 -1.65816,0.4321 -1.54658,-0.0191 -2.06579,-0.22918 -1.15381,-0.46683 z"
       style="fill:#008080;fill-opacity:1;stroke:#2d5353;stroke-width:0.937322;stroke-opacity:1" />
    <path
       transform="scale(0.26458333)"
       id="path1178"
       d="m 288.96364,291.98586 c 0.67663,-0.27077 1.48507,-0.23747 1.79653,0.074 0.31146,0.31146 -0.24214,0.533 -1.23024,0.4923 -1.09192,-0.045 -1.31403,-0.26708 -0.56629,-0.5663 z"
       style="fill:#008080;fill-opacity:1;stroke:#2d5353;stroke-width:0.937322;stroke-opacity:1" />
    <rect
       y="76.899956"
       x="63.719467"
       height="1.2680463"
       width="70.998962"
       id="rect1182"
       style="fill:#f2f2f2;fill-opacity:1;stroke:#2d5353;stroke-width:0.264583;stroke-opacity:1" />
    <path
       transform="scale(0.26458333)"
       id="path1184"
       d="m 287.34598,201.15132 92.71362,-92.696 92.56054,92.44263 92.56053,92.44262 -22.02707,-0.34461 c -12.11488,-0.18954 -24.45238,-0.35028 -27.41666,-0.35721 -4.16027,-0.01 -5.3896,-0.33329 -5.3896,-1.41858 0,-1.24326 -15.63659,-1.40598 -135.10535,-1.40598 -121.9122,0 -135.21083,0.14426 -136.1856,1.47734 -0.90845,1.24238 -4.52703,1.5631 -22.75215,2.01657 l -21.67189,0.53923 z"
       style="fill:#f2f2f2;fill-opacity:1;stroke:#2d5353;stroke-width:0.937322;stroke-opacity:1" />
    <path
       transform="scale(0.26458333)"
       id="path1186"
       d="M 243.21061,390.20658 V 296.37544 H 375.84165 508.4727 l 0.0104,5.85827 c 0.006,3.22204 0.61547,31.37684 1.35503,62.56623 0.73955,31.18938 1.63609,70.09996 1.9923,86.46794 l 0.64766,29.75997 -23.32677,0.008 c -28.3163,0.0103 -163.88914,1.54134 -211.49411,2.38843 l -34.4466,0.613 z m 140.92864,76.41179 c 5.64123,-3.32281 13.15149,-11.21085 18.85435,-19.80277 7.5236,-11.33504 12.93149,-22.8485 11.99713,-25.54202 -0.54682,-1.57633 -3.078,-1.48577 -4.36484,0.15616 -0.89149,1.13749 -5.13826,0.87247 -29.62897,-1.84902 -15.72357,-1.74725 -32.30269,-3.46157 -36.84249,-3.80958 l -8.25417,-0.63274 0.6645,2.71609 c 1.18131,4.82853 10.61077,27.6596 13.53352,32.76803 4.1855,7.31549 10.60405,13.99307 16.15662,16.80865 5.93984,3.01194 11.84672,2.74349 17.88435,-0.8128 z m 68.0069,-53.58364 c 17.26962,-4.07075 31.3397,-18.17295 34.82704,-34.90657 0.67415,-3.23484 0.90327,-8.68913 0.57772,-13.75275 -0.71015,-11.04558 -4.87908,-19.93264 -13.21567,-28.17233 -9.74031,-9.62708 -19.75401,-13.58262 -34.38523,-13.58262 -18.90025,0 -34.15424,9.54128 -42.6114,26.65319 -2.69225,5.44737 -3.37576,8.05586 -3.8243,14.59453 -1.04109,15.17637 2.88637,26.27165 12.81923,36.21517 12.08259,12.09552 29.06993,16.8979 45.81261,12.95138 z m -125.1209,-2.27453 c 15.96096,-5.50709 27.81504,-19.57431 30.70722,-36.44021 2.95247,-17.21742 -5.93496,-35.94188 -21.9318,-46.20703 -13.3808,-8.58643 -36.82497,-8.58643 -50.20577,0 -26.65597,17.10509 -30.05957,52.21882 -7.09593,73.20628 5.71335,5.22168 14.37629,9.74267 21.42914,11.18337 6.84089,1.3974 20.55255,0.5157 27.09714,-1.74241 z"
       style="fill:#f2f2f2;fill-opacity:1;stroke:#2d5353;stroke-width:0.937322;stroke-opacity:1" />
    <path
       transform="scale(0.26458333)"
       id="path1188"
       d="m 311.94252,290.98593 c 34.96715,-0.13616 91.90945,-0.13614 126.53845,5e-5 34.629,0.13618 6.01951,0.24759 -63.57664,0.24756 -69.59614,-2e-5 -97.92896,-0.11145 -62.96181,-0.24761 z"
       style="fill:#f2f2f2;fill-opacity:1;stroke:#2d5353;stroke-width:0.937322;stroke-opacity:1" />
    <path
       transform="scale(0.26458333)"
       id="path1190"
       d="m 178.14888,420.80492 c -3.69763,-5.70434 -7.9224,-24.43665 -8.03313,-35.61823 -0.0301,-3.04265 -3.32865,-1.69433 -13.19223,5.39251 -10.36005,7.44355 -13.37202,8.83256 -15.79173,7.28257 -2.60832,-1.67081 -1.91093,-10.05449 1.42473,-17.12736 4.36014,-9.24518 7.17753,-11.99459 16.98983,-16.5799 4.77318,-2.23052 8.67852,-4.28806 8.67852,-4.57232 0,-0.28425 -0.4218,-0.25614 -0.93733,0.0625 -0.51552,0.31861 -0.93732,0.17723 -0.93732,-0.31419 0,-0.49141 -0.94904,-0.8838 -2.10897,-0.87196 -3.58946,0.0366 -14.18276,-1.38923 -16.40313,-2.20785 -2.50517,-0.92362 -2.78818,-3.31979 -0.46867,-3.96796 2.0042,-0.56007 15.52647,-1.51612 23.19872,-1.64021 8.50225,-0.13751 8.90801,-0.36074 8.8822,-4.88649 -0.0123,-2.15625 -0.33031,-5.39674 -0.7067,-7.20108 -0.37638,-1.80435 -0.47177,-5.6005 -0.21197,-8.4359 0.41355,-4.51338 0.70578,-5.1163 2.34701,-4.84226 4.57221,0.76344 10.64744,10.06614 11.49719,17.60508 0.2524,2.23935 0.77413,3.87673 1.15939,3.63862 0.38526,-0.2381 0.49425,1.39672 0.24219,3.63295 l -0.45828,4.06586 9.85543,0.66017 c 5.42049,0.3631 13.37715,0.38034 17.68147,0.0383 4.30431,-0.34202 10.25181,-0.68377 13.21667,-0.75944 l 5.39065,-0.13758 -0.001,17.05355 -0.001,17.05355 -20.38675,-0.002 c -11.21272,-0.001 -21.72409,0.12666 -23.35862,0.28387 l -2.97186,0.28585 -0.6574,9.84491 c -0.70047,10.49 -1.43915,12.6357 -6.84074,19.87091 -3.75121,5.02461 -5.0973,5.47858 -7.09708,2.39352 z"
       style="fill:#f2f2f2;fill-opacity:1;stroke:#2d5353;stroke-width:0.937322;stroke-opacity:1" />
    <path
       transform="scale(0.26458333)"
       id="path1192"
       d="m 574.42702,413.09083 c -5.88215,-6.13895 -6.98971,-8.92829 -7.95381,-20.03129 -0.51643,-5.94758 -1.31927,-10.18526 -2.0131,-10.626 -0.63475,-0.40321 -12.2262,-0.73956 -25.75878,-0.74746 l -24.6047,-0.0143 -0.0103,-12.88817 c -0.006,-7.0885 -0.2823,-14.53489 -0.61474,-16.54754 l -0.60442,-3.65936 6.00434,0.58702 c 3.30239,0.32286 15.17838,0.87402 26.39109,1.22479 l 20.38675,0.63777 0.009,-7.40731 c 0.007,-5.78263 0.48886,-8.43524 2.19623,-12.09392 2.25889,-4.84053 8.93189,-11.71652 11.37063,-11.71652 2.18661,0 2.6748,4.13231 1.53666,13.00707 -0.57906,4.5153 -1.05284,9.341 -1.05284,10.72379 v 2.51415 l 17.10612,0.0128 c 18.6974,0.014 21.56699,0.37691 21.12504,2.67176 -0.33973,1.7641 -4.99324,2.76417 -13.8608,2.97878 -12.99291,0.31445 -14.16991,2.69455 -3.28062,6.63399 10.87706,3.93502 16.06883,8.21155 20.48515,16.87386 6.01303,11.79419 5.55636,18.72557 -1.13689,17.25549 -1.51557,-0.33288 -8.16057,-3.96063 -14.76665,-8.06167 -6.60608,-4.10104 -12.4421,-7.31275 -12.96893,-7.13715 -1.19785,0.39929 -1.9524,3.61105 -3.25375,13.84965 -1.53904,12.1086 -6.71196,26.15895 -9.63096,26.15895 -0.59201,0 -2.88694,-1.8896 -5.09985,-4.19913 z"
       style="fill:#f2f2f2;fill-opacity:1;stroke:#2d5353;stroke-width:0.937322;stroke-opacity:1" />
    <path
       transform="scale(0.26458333)"
       id="path1194"
       d="m 308.98415,295.67257 c 36.43321,-0.13584 96.32808,-0.13586 133.09971,-4e-5 36.77162,0.13582 6.96263,0.24696 -66.24221,0.24699 -73.20483,2e-5 -103.29071,-0.1111 -66.8575,-0.24695 z"
       style="fill:#f2f2f2;fill-opacity:1;stroke:#2d5353;stroke-width:0.937322;stroke-opacity:1" />
    <path
       transform="scale(0.26458333)"
       id="path1196"
       d="m 470.27683,295.67473 c 7.0885,-0.15923 18.68785,-0.15923 25.77635,0 7.0885,0.15924 1.28882,0.28952 -12.88817,0.28952 -14.177,0 -19.97668,-0.13028 -12.88818,-0.28952 z"
       style="fill:#f2f2f2;fill-opacity:1;stroke:#2d5353;stroke-width:0.937322;stroke-opacity:1" />
    <path
       transform="scale(0.26458333)"
       id="path1198"
       d="m 241.33597,293.09482 c 0,-1.24319 15.46581,-1.40599 133.56836,-1.40599 118.10256,0 133.56837,0.1628 133.56837,1.40599 0,1.24318 -15.46581,1.40598 -133.56837,1.40598 -118.10255,0 -133.56836,-0.1628 -133.56836,-1.40598 z"
       style="fill:#f2f2f2;fill-opacity:1;stroke:none;stroke-width:0.937322;stroke-opacity:1" />
    <rect
       y="76.899948"
       x="63.719467"
       height="1.5160478"
       width="70.813934"
       id="rect1200"
       style="fill:#f2f2f2;fill-opacity:1;stroke:none;stroke-width:0.264583;stroke-opacity:1" />
    <rect
       y="93.667992"
       x="63.358025"
       height="9.5741673"
       width="0.99144399"
       id="rect1202"
       style="fill:#f2f2f2;fill-opacity:1;stroke:none;stroke-width:0.264583;stroke-opacity:1" />
    <rect
       y="91.977203"
       x="135.44771"
       height="9.0067892"
       width="0.57368016"
       id="rect1204"
       style="fill:#f2f2f2;fill-opacity:1;stroke:none;stroke-width:0.264583;stroke-opacity:1" />
    <rect
       ry="0"
       y="76.899948"
       x="63.719467"
       height="1.5160522"
       width="70.813934"
       id="rect1206"
       style="fill:#f2f2f2;fill-opacity:1;stroke:none;stroke-width:0.264583;stroke-opacity:1" />
  </g>
</svg>
